<mxfile host="app.diagrams.net" agent="Mozilla/5.0 (Macintosh; Intel Mac OS X 10_15_7) AppleWebKit/537.36 (KHTML, like Gecko) Chrome/136.0.0.0 Safari/537.36" version="27.0.9">
  <diagram name="Page-1" id="ZS3YAYQui6NcXNEdI3F_">
    <mxGraphModel dx="2967" dy="1531" grid="1" gridSize="10" guides="1" tooltips="1" connect="1" arrows="1" fold="1" page="1" pageScale="1" pageWidth="827" pageHeight="1169" math="0" shadow="0">
      <root>
        <mxCell id="0" />
        <mxCell id="1" parent="0" />
        <mxCell id="9QzqSH8S6gkD18oGPRQU-34" style="edgeStyle=orthogonalEdgeStyle;rounded=0;orthogonalLoop=1;jettySize=auto;html=1;strokeWidth=4;" edge="1" parent="1" source="9QzqSH8S6gkD18oGPRQU-1" target="9QzqSH8S6gkD18oGPRQU-3">
          <mxGeometry relative="1" as="geometry" />
        </mxCell>
        <mxCell id="9QzqSH8S6gkD18oGPRQU-1" value="Place the Foot&lt;br&gt;(Auto Start from sleep)&amp;nbsp;&amp;nbsp;" style="rounded=1;whiteSpace=wrap;html=1;arcSize=50;fontSize=48;fontFamily=Times New Roman;align=center;strokeWidth=4;" vertex="1" parent="1">
          <mxGeometry x="-770" y="195" width="510" height="145" as="geometry" />
        </mxCell>
        <mxCell id="9QzqSH8S6gkD18oGPRQU-41" style="edgeStyle=orthogonalEdgeStyle;rounded=0;orthogonalLoop=1;jettySize=auto;html=1;entryX=0;entryY=0.5;entryDx=0;entryDy=0;strokeWidth=4;" edge="1" parent="1" source="9QzqSH8S6gkD18oGPRQU-3" target="9QzqSH8S6gkD18oGPRQU-7">
          <mxGeometry relative="1" as="geometry" />
        </mxCell>
        <mxCell id="9QzqSH8S6gkD18oGPRQU-3" value="&lt;p data-pm-slice=&quot;1 1 [&amp;quot;ordered_list&amp;quot;,{&amp;quot;spread&amp;quot;:false,&amp;quot;startingNumber&amp;quot;:1,&amp;quot;start&amp;quot;:1593,&amp;quot;end&amp;quot;:1792},&amp;quot;regular_list_item&amp;quot;,{&amp;quot;start&amp;quot;:1656,&amp;quot;end&amp;quot;:1694}]&quot;&gt;&lt;span style=&quot;background-color: transparent; color: light-dark(rgb(0, 0, 0), rgb(255, 255, 255));&quot;&gt;Capture&amp;nbsp;&lt;/span&gt;IR and RGB&amp;nbsp;&lt;/p&gt;" style="rounded=0;whiteSpace=wrap;html=1;fontSize=48;fontFamily=Times New Roman;strokeWidth=4;" vertex="1" parent="1">
          <mxGeometry x="-139.5" y="195" width="321" height="145" as="geometry" />
        </mxCell>
        <mxCell id="9QzqSH8S6gkD18oGPRQU-44" style="edgeStyle=orthogonalEdgeStyle;rounded=0;orthogonalLoop=1;jettySize=auto;html=1;exitX=0;exitY=0.5;exitDx=0;exitDy=0;entryX=1;entryY=0.5;entryDx=0;entryDy=0;strokeWidth=4;" edge="1" parent="1" source="9QzqSH8S6gkD18oGPRQU-4" target="9QzqSH8S6gkD18oGPRQU-6">
          <mxGeometry relative="1" as="geometry" />
        </mxCell>
        <mxCell id="9QzqSH8S6gkD18oGPRQU-4" value="&lt;p data-pm-slice=&quot;1 1 [&amp;quot;ordered_list&amp;quot;,{&amp;quot;spread&amp;quot;:false,&amp;quot;startingNumber&amp;quot;:1,&amp;quot;start&amp;quot;:1593,&amp;quot;end&amp;quot;:1792},&amp;quot;regular_list_item&amp;quot;,{&amp;quot;start&amp;quot;:1695,&amp;quot;end&amp;quot;:1744}]&quot;&gt;Python-based stitching algorithm merges strips&lt;/p&gt;" style="rounded=0;whiteSpace=wrap;html=1;fontSize=48;fontFamily=Times New Roman;strokeWidth=4;" vertex="1" parent="1">
          <mxGeometry x="276" y="530" width="490" height="145" as="geometry" />
        </mxCell>
        <mxCell id="9QzqSH8S6gkD18oGPRQU-45" value="" style="edgeStyle=orthogonalEdgeStyle;rounded=0;orthogonalLoop=1;jettySize=auto;html=1;strokeWidth=4;" edge="1" parent="1" source="9QzqSH8S6gkD18oGPRQU-6" target="9QzqSH8S6gkD18oGPRQU-9">
          <mxGeometry relative="1" as="geometry" />
        </mxCell>
        <mxCell id="9QzqSH8S6gkD18oGPRQU-6" value="&lt;span style=&quot;text-align: left;&quot;&gt;Images uploaded to cloud for clinical access&lt;/span&gt;" style="rounded=0;whiteSpace=wrap;html=1;fontSize=48;fontFamily=Times New Roman;strokeWidth=4;" vertex="1" parent="1">
          <mxGeometry x="-390" y="536.25" width="505" height="132.5" as="geometry" />
        </mxCell>
        <mxCell id="9QzqSH8S6gkD18oGPRQU-42" style="edgeStyle=orthogonalEdgeStyle;rounded=0;orthogonalLoop=1;jettySize=auto;html=1;entryX=0.5;entryY=0;entryDx=0;entryDy=0;exitX=0.5;exitY=0;exitDx=0;exitDy=0;strokeWidth=4;" edge="1" parent="1" source="9QzqSH8S6gkD18oGPRQU-7" target="9QzqSH8S6gkD18oGPRQU-3">
          <mxGeometry relative="1" as="geometry">
            <Array as="points">
              <mxPoint x="521" y="80" />
              <mxPoint x="21" y="80" />
            </Array>
          </mxGeometry>
        </mxCell>
        <mxCell id="9QzqSH8S6gkD18oGPRQU-43" style="edgeStyle=orthogonalEdgeStyle;rounded=0;orthogonalLoop=1;jettySize=auto;html=1;entryX=0.5;entryY=0;entryDx=0;entryDy=0;strokeWidth=4;" edge="1" parent="1" source="9QzqSH8S6gkD18oGPRQU-7" target="9QzqSH8S6gkD18oGPRQU-4">
          <mxGeometry relative="1" as="geometry" />
        </mxCell>
        <mxCell id="9QzqSH8S6gkD18oGPRQU-7" value="Is Strip Count&lt;br&gt;Over?" style="rhombus;whiteSpace=wrap;html=1;fontSize=48;fontFamily=Times New Roman;strokeWidth=4;" vertex="1" parent="1">
          <mxGeometry x="310" y="132.5" width="422" height="270" as="geometry" />
        </mxCell>
        <mxCell id="9QzqSH8S6gkD18oGPRQU-9" value="Sleep" style="rounded=1;whiteSpace=wrap;html=1;arcSize=50;fontSize=48;fontFamily=Times New Roman;strokeWidth=4;" vertex="1" parent="1">
          <mxGeometry x="-690" y="563.75" width="170" height="77.5" as="geometry" />
        </mxCell>
        <mxCell id="9QzqSH8S6gkD18oGPRQU-15" value="NO" style="text;html=1;align=center;verticalAlign=middle;resizable=0;points=[];autosize=1;strokeColor=none;fillColor=none;fontSize=31;fontFamily=Times New Roman;rotation=0;strokeWidth=4;" vertex="1" parent="1">
          <mxGeometry x="210" y="30" width="70" height="50" as="geometry" />
        </mxCell>
        <mxCell id="9QzqSH8S6gkD18oGPRQU-17" value="YES" style="text;html=1;align=center;verticalAlign=middle;resizable=0;points=[];autosize=1;strokeColor=none;fillColor=none;fontSize=31;fontFamily=Times New Roman;strokeWidth=4;rotation=90;" vertex="1" parent="1">
          <mxGeometry x="500" y="430" width="80" height="50" as="geometry" />
        </mxCell>
      </root>
    </mxGraphModel>
  </diagram>
</mxfile>
